<?xml version="1.0" encoding="UTF-8" standalone="no"?>
<!-- Created with Inkscape (http://www.inkscape.org/) -->

<svg
   xmlns:dc="http://purl.org/dc/elements/1.1/"
   xmlns:cc="http://creativecommons.org/ns#"
   xmlns:rdf="http://www.w3.org/1999/02/22-rdf-syntax-ns#"
   xmlns:svg="http://www.w3.org/2000/svg"
   xmlns="http://www.w3.org/2000/svg"
   xmlns:sodipodi="http://sodipodi.sourceforge.net/DTD/sodipodi-0.dtd"
   xmlns:inkscape="http://www.inkscape.org/namespaces/inkscape"
   width="39.212948mm"
   height="58.155544mm"
   viewBox="0 0 39.212948 58.155544"
   version="1.1"
   id="svg8"
   inkscape:version="0.92.3 (2405546, 2018-03-11)"
   sodipodi:docname="face-no-fill.svg">
  <defs
     id="defs2" />
  <sodipodi:namedview
     id="base"
     pagecolor="#ffffff"
     bordercolor="#666666"
     borderopacity="1.0"
     inkscape:pageopacity="0.0"
     inkscape:pageshadow="2"
     inkscape:zoom="2.8"
     inkscape:cx="35.288857"
     inkscape:cy="105.60763"
     inkscape:document-units="mm"
     inkscape:current-layer="g4526"
     showgrid="false"
     inkscape:window-width="1366"
     inkscape:window-height="704"
     inkscape:window-x="0"
     inkscape:window-y="27"
     inkscape:window-maximized="1"
     inkscape:snap-object-midpoints="true" />
  <metadata
     id="metadata5">
    <rdf:RDF>
      <cc:Work
         rdf:about="">
        <dc:format>image/svg+xml</dc:format>
        <dc:type
           rdf:resource="http://purl.org/dc/dcmitype/StillImage" />
        <dc:title />
      </cc:Work>
    </rdf:RDF>
  </metadata>
  <g
     inkscape:label="Layer 1"
     inkscape:groupmode="layer"
     id="layer1"
     transform="translate(-84.607505,-122.27822)">
    <g
       id="g4526">
      <path
         sodipodi:nodetypes="cccscssscscsssccc"
         inkscape:connector-curvature="0"
         id="path3715"
         d="m 101.5068,179.85709 c -5.116701,-1.02899 -9.705451,-5.3119 -14.957601,-14.18649 l -1.26016,-2.12931 -0.29347,-12.75062 c -0.211843,-9.20412 13.685449,-18.97756 4.709628,-11.03971 0,0 6.368021,-1.60467 7.893984,-1.77564 4.567389,-0.51172 7.247379,-1.41151 10.784139,-1.11873 2.85403,0.23627 7.43948,0.98127 11.60978,2.253 3.61736,1.10311 1.74999,8.36923 2.96567,6.66176 0.0404,0.1162 -0.4107,-1.30602 -0.61387,5.73529 -0.2701,9.3616 -0.49641,11.85487 -0.61613,12.0168 -0.09,0.12179 -1.25422,2.15104 -2.34206,3.85612 -1.08784,1.70509 -2.42664,3.73125 -2.97512,4.5026 -1.33582,1.87862 -4.39044,5.2023 -5.67412,6.17391 -1.22341,0.92598 -2.37709,1.64349 -4.21304,1.88218 0,0 -4.11354,0.10065 -5.01763,-0.0812 z"
         style="fill:#ffb380;fill-opacity:0.0262009;stroke:#000000;stroke-width:1.5;stroke-miterlimit:4;stroke-dasharray:none;stroke-opacity:0.98689958" />
      <path
         sodipodi:nodetypes="ccscscccccccccccccccccccccc"
         inkscape:connector-curvature="0"
         id="path4522"
         d="m 85.353178,150.52061 v 0 c -0.0651,-1.88678 0.505027,-4.03562 1.286004,-5.92581 0.967341,-2.34126 2.258168,-4.28571 3.066015,-4.84384 4.350009,-1.4862 8.424546,-2.38206 12.396543,-2.73418 5.82734,-0.51659 11.43398,0.13719 17.36598,1.81423 2.95025,0.48275 3.3912,7.33924 3.22458,11.56246 v 0 l 0.92132,-12.3333 c -0.0913,-1.15831 0.77677,-1.41216 -0.48523,-10.89947 -0.4571,-0.77916 -3.16733,0.72195 -4.71753,5.00198 0.80436,-3.26247 4.20963,-5.09885 2.97981,-6.75713 -2.12588,-1.31718 -7.55704,1.4386 -9.49175,6.84583 0.98543,-2.34978 5.03763,-7.29291 4.16363,-8.86482 -3.63687,-1.25888 -6.1476,4.50205 -7.89566,7.49056 1.39062,-2.51883 2.8346,-5.00294 2.70453,-8.51134 -2.43679,-0.91835 -8.03727,5.62412 -11.524712,8.53347 2.325122,-1.99597 7.911992,-8.40219 3.276342,-7.95969 -3.865807,1.53147 -5.764555,5.66875 -8.639426,8.51294 1.860758,-2.52078 4.269993,-4.68463 4.675538,-8.15238 -2.307711,-1.293 -5.852192,1.98579 -8.195464,7.10805 1.418765,-2.54677 5.590037,-8.06564 2.586201,-6.97737 -1.918212,0.25938 -4.874645,2.82007 -7.737814,7.5023 v 0 c -0.374352,0.92245 -0.79583,6.18828 -0.687206,8.78654 l 0.260586,6.64973 z"
         style="fill:#2b1100;fill-opacity:0;stroke:#000000;stroke-width:1.5;stroke-linecap:butt;stroke-linejoin:miter;stroke-miterlimit:4;stroke-dasharray:none;stroke-opacity:0.98689958" />
    </g>
  </g>
</svg>
